<svg id="success" xmlns="http://www.w3.org/2000/svg" width="100" height="100" viewBox="0 0 100 100">
  <path id="Path_426" data-name="Path 426" d="M50,0a50,50,0,1,0,50,50A50.056,50.056,0,0,0,50,0Zm0,96.154A46.154,46.154,0,1,1,96.154,50,46.208,46.208,0,0,1,50,96.154Z"/>
  <path id="Path_427" data-name="Path 427" d="M62.588,15.645,32.972,48.816,15.13,34.606a1.934,1.934,0,0,0-2.707.3,1.914,1.914,0,0,0,.3,2.7L31.993,52.95a1.935,1.935,0,0,0,2.646-.224L65.471,18.193a1.91,1.91,0,0,0-.16-2.707A1.932,1.932,0,0,0,62.588,15.645Z" transform="translate(11.022 13.889)"/>
</svg>
