<svg xmlns="http://www.w3.org/2000/svg" width="42" height="70" viewBox="0 0 42 70">
  <g id="Group_323" data-name="Group 323" transform="translate(-179.824 -399.645)">
    <g id="Group_322" data-name="Group 322" transform="translate(179.824 399.645)">
      <g id="Group_321" data-name="Group 321">
        <path id="Path_424" data-name="Path 424" d="M221.523,448.533a21.087,21.087,0,0,1-21.07,21.108l-7.314,0-.014-28.006c.727-.277,1.449-.574,2.16-.894A45.151,45.151,0,0,0,218.117,418.2c-4.664,8.317-11.728,14.373-20.139,18.688a41.118,41.118,0,0,1-3.945,1.771c-.3.119-.606.224-.91.336l-.064.023c-.325.121-.651.238-.98.345-.656.222-1.321.419-1.986.608a40.158,40.158,0,0,1-4.041.931,42.172,42.172,0,0,1-6.228.638l.08-4.254c.043-2.076.078-4.153.139-6.232l.277-9.992c.581-.057,1.156-.137,1.73-.245a20.8,20.8,0,0,0,4.1-1.207,21.17,21.17,0,0,0,3.764-2.024,20.823,20.823,0,0,0,3.2-2.692l.055-.055a20.927,20.927,0,0,0,5.634-11.2c.112-.712.185-1.425.229-2.139q1.865-.106,3.753-.242c1.982-.142,3.986-.309,6.029-.485l12.689-1.127v.03C222.215,402.232,221.523,448.533,221.523,448.533Z" transform="translate(-179.824 -399.645)" fill="#fff"/>
      </g>
    </g>
  </g>
</svg>
